<svg width="100" xmlns="http://www.w3.org/2000/svg" height="100" viewBox="338 452 100 100" style="-webkit-print-color-adjust::exact" fill="none"><defs><clipPath id="a" class="frame-clip frame-clip-def"><rect rx="0" ry="0" x="338" y="452" width="100" height="100"/></clipPath></defs><defs><mask id="e"><rect rx="0" ry="0" x="338" y="452" width="100" height="100" fill="#fff"/><path d="M359.5 475.23c0-4.153 2.104-6.23 2.805-6.23h29.455c-.35 0-2.805 2.077-2.805 6.23v12.833s-.054 2.326-1.921 3.177c-2.398 1.093-3.842 0-3.842 0l-4.483-2.541c-2.486-1.41-3.201-1.907-4.482-1.907-1.28 0-1.996.497-4.482 1.907l-4.482 2.541s-1.877 1.215-3.842.205c-1.88-.967-1.921-3.17-1.921-3.17z" style="fill:#000;fill-opacity:1" class="fills"/><path d="M397.3 475c7.2 0 13.2 5.996 13.2 13.191s-6 13.192-13.2 13.192h-25.8c-3.6 0-6 2.398-6 5.996v15.59c0 3.597 2.4 5.996 6 5.996s23.4.044 25.8.033c7.2-.033 13.2-6.03 13.2-13.225 0-.07-.063-1.315-.145-2.875" class="fills"/><path d="M397.3 475c7.2 0 13.2 5.996 13.2 13.191s-6 13.192-13.2 13.192h-25.8c-3.6 0-6 2.398-6 5.996v15.59c0 3.597 2.4 5.996 6 5.996s23.4.044 25.8.033c7.2-.033 13.2-6.03 13.2-13.225 0-.07-.063-1.315-.145-2.875" style="fill:none;fill-opacity:none;stroke-width:12;stroke:#000;stroke-linecap:round"/></mask></defs><g class="frame-container-wrapper"><g class="frame-container-blur"><g class="frame-container-shadows"><g class="frame-children" clip-path="url(#a)"><defs><linearGradient id="b" x1=".07" y1=".05" x2=".94" y2=".948"><stop offset="0" stop-color="#92C1FA"/><stop offset=".5" stop-color="#5B7ACD"/><stop offset="1" stop-color="#4756B4"/></linearGradient><pattern patternUnits="userSpaceOnUse" x="338" y="452" width="100" height="100" id="d"><path style="fill:url(#b);fill-opacity:1" d="M0 0h100v100H0z"/></pattern></defs><rect rx="20" ry="20" x="338" y="452" width="100" height="100" fill="url(#d)" class="fills" mask="url(#e)"/><defs><linearGradient id="f" x1="-.016" y1=".475" x2=".634" y2=".432"><stop offset="0" stop-color="#4756B4"/><stop offset="1" stop-color="#4756B4" stop-opacity="0"/></linearGradient><pattern patternUnits="userSpaceOnUse" x="359.294" y="500" width="78.706" height="52" id="g"><path style="fill:url(#f)" d="M0 0h78.706v52H0z"/></pattern></defs><path d="M368.5 552c-2 0-3-2.5-5.5-7-2.316-4.17-5.841-9.293-2-11 4.5-2 77-34 77-34v33c0 10-9 19-19 19z" fill="url(#g)" class="fills" mask="url(#e)"/><defs><linearGradient id="h" x1="-.016" y1=".475" x2=".634" y2=".432"><stop offset="0" stop-color="#92C1FA"/><stop offset="1" stop-color="#92C1FA" stop-opacity="0"/></linearGradient><pattern patternUnits="userSpaceOnUse" x="338" y="452" width="78.706" height="52" patternTransform="rotate(180 377.353 478)" id="i"><path style="fill:url(#h)" d="M0 0h78.706v52H0z"/></pattern></defs><path d="M407.5 452c2 0 3 2.5 5.5 7 2.316 4.17 5.841 9.293 2 11-4.5 2-77 34-77 34v-33c0-10 9-19 19-19z" fill="url(#i)" class="fills" mask="url(#e)"/></g></g></g></g></svg>